<svg id="Capa_1" enable-background="new 0 0 512.07 512.07" height="512" viewBox="0 0 512.07 512.07" width="512" xmlns="http://www.w3.org/2000/svg"><g><g><path d="m236.111 49.424-225.438 390c-8.869 15.343 2.203 34.532 19.925 34.532h450.875c17.722 0 28.794-19.189 19.925-34.532l-225.438-390c-8.861-15.329-30.989-15.329-39.849 0z" fill="#736e6e"/><path d="m503.685 456.952c-2.58 9.43-11.08 17-22.21 17h-450.88c-17.72 0-28.79-19.18-19.92-34.53l225.44-390c5.14-8.9 14.76-12.63 23.65-11.2l-222.09 384.2c-8.87 15.35 2.2 34.53 19.92 34.53z" fill="#5a5555"/><path d="m51.19 429.43 196.184-339.991c3.848-6.669 13.474-6.669 17.323 0l196.184 339.991c3.847 6.667-.965 14.998-8.661 14.998h-392.369c-7.697 0-12.508-8.331-8.661-14.998z" fill="#f5de46"/><path d="m452.215 444.432h-392.36c-7.7 0-12.51-8.33-8.67-15l196.19-339.99c3.85-6.67 13.47-6.67 17.32 0l.57.99-184.08 319c-3.84 6.67.97 15 8.67 15h368.14l2.89 5c3.84 6.67-.97 15-8.67 15z" fill="#f3d332"/><g><path d="m256.535 354.59c-12.407 0-22.5-10.094-22.5-22.5v-156.148c0-12.406 10.093-22.5 22.5-22.5s22.5 10.094 22.5 22.5v156.148c0 12.406-10.093 22.5-22.5 22.5z" fill="#736e6e"/></g><g><path d="m254.035 332.091v-156.15c0-8.82 5.1-16.47 12.5-20.15-3.02-1.51-6.41-2.35-10-2.35-12.41 0-22.5 10.09-22.5 22.5v156.15c0 12.4 10.09 22.5 22.5 22.5 3.59 0 6.98-.85 10-2.36-7.4-3.679-12.5-11.329-12.5-20.14z" fill="#5a5555"/></g><g><path d="m256.535 418.942c-14.612 0-26.5-11.888-26.5-26.5s11.888-26.5 26.5-26.5 26.5 11.888 26.5 26.5-11.887 26.5-26.5 26.5z" fill="#736e6e"/></g><g><path d="m276.535 398.942c-14.61 0-26.5-11.89-26.5-26.5 0-2.01.22-3.96.66-5.84-11.81 2.66-20.66 13.24-20.66 25.84 0 14.61 11.89 26.5 26.5 26.5 12.6 0 23.18-8.85 25.84-20.66-1.88.44-3.83.66-5.84.66z" fill="#5a5555"/></g></g><g><path d="m507.891 435.671-225.438-390.001c-10.723-20.096-42.115-20.094-52.836.001l-19.27 33.337c-2.073 3.586-.846 8.173 2.74 10.246 3.585 2.073 8.173.846 10.247-2.74l19.27-33.336c5.451-10.218 21.412-10.216 26.863-.001l225.438 390.001c6.14 9.832-1.848 23.672-13.432 23.277h-450.875c-11.586.395-19.571-13.447-13.432-23.278l188.651-326.361c2.073-3.586.846-8.173-2.74-10.246-3.586-2.074-8.174-.847-10.247 2.74l-188.65 326.36c-12.076 19.339 3.634 46.562 26.418 45.785h450.875c22.786.777 38.493-26.448 26.418-45.784z"/><path d="m452.22 436.928h-67.185c-4.142 0-7.5 3.357-7.5 7.5s3.358 7.5 7.5 7.5h67.185c13.062.445 22.07-15.156 15.157-26.246l-196.184-339.992c-6.146-11.54-24.17-11.539-30.315.001l-196.184 339.99c-6.914 11.092 2.096 26.691 15.157 26.247h290.185c4.142 0 7.5-3.357 7.5-7.5s-3.358-7.5-7.5-7.5h-290.185c-2.221-.315-3.003-1.669-2.165-3.75l196.184-339.99c1.382-1.767 2.948-1.767 4.331-.001l196.184 339.991c.837 2.081.057 3.435-2.165 3.75z"/><path d="m271.535 277.442c4.142 0 7.5-3.357 7.5-7.5v-94c0-12.406-10.093-22.5-22.5-22.5s-22.5 10.094-22.5 22.5v156.148c0 12.406 10.093 22.5 22.5 22.5s22.5-10.094 22.5-22.5v-27.148c0-4.143-3.358-7.5-7.5-7.5s-7.5 3.357-7.5 7.5v27.148c0 4.136-3.364 7.5-7.5 7.5s-7.5-3.364-7.5-7.5v-156.148c0-4.136 3.364-7.5 7.5-7.5s7.5 3.364 7.5 7.5v94c0 4.142 3.358 7.5 7.5 7.5z"/><path d="m256.535 418.942c14.612 0 26.5-11.888 26.5-26.5s-11.888-26.5-26.5-26.5-26.5 11.888-26.5 26.5 11.888 26.5 26.5 26.5zm0-38c6.341 0 11.5 5.159 11.5 11.5s-5.159 11.5-11.5 11.5-11.5-5.159-11.5-11.5 5.159-11.5 11.5-11.5z"/></g></g></svg>