<svg id="Capa_1" enable-background="new 0 0 512 512" height="512" viewBox="0 0 512 512" width="512" xmlns="http://www.w3.org/2000/svg"><g><path d="m372.75 7.5h-30l-60 47.125 60 47.125h30z" fill="#f3da49"/><path d="m139.25 7.5h203.5v94.25h-203.5z" fill="#f9eda4"/><path d="m372.75 131.75h-30l-60 47.125 60 47.125h30z" fill="#f9b348"/><path d="m139.25 131.75h203.5v94.25h-203.5z" fill="#f3da49"/><path d="m504.5 286h-30l-60 47.125 60 47.125h30z" fill="#f63"/><path d="m271 286h203.5v94.25h-203.5z" fill="#ff8b47"/><path d="m504.5 410.25h-30l-60 47.125 60 47.125h30z" fill="#28abfa"/><path d="m271 410.25h203.5v94.25h-203.5z" fill="#14cfff"/><path d="m241 410.25h-30l-60 47.125 60 47.125h30z" fill="#61ce5b"/><path d="m7.5 410.25h203.5v94.25h-203.5z" fill="#94e368"/><path d="m241 286h-30l-60 47.125 60 47.125h30z" fill="#ff8b47"/><path d="m7.5 286h203.5v94.25h-203.5z" fill="#f9b348"/><path d="m504.5 387.75c4.142 0 7.5-3.357 7.5-7.5v-94.25c0-4.143-3.358-7.5-7.5-7.5h-109.25v-22.5c0-4.143-3.358-7.5-7.5-7.5h-124.25v-15h109.25c4.142 0 7.5-3.357 7.5-7.5v-94.25c0-4.143-3.358-7.5-7.5-7.5h-86.75c-4.142 0-7.5 3.357-7.5 7.5s3.358 7.5 7.5 7.5h79.25v79.25h-218.5v-79.25h109.25c4.142 0 7.5-3.357 7.5-7.5v-22.5h109.25c4.142 0 7.5-3.357 7.5-7.5v-94.25c0-4.143-3.358-7.5-7.5-7.5h-233.5c-4.142 0-7.5 3.357-7.5 7.5v94.25c0 4.143 3.358 7.5 7.5 7.5h109.25v15h-109.25c-4.142 0-7.5 3.357-7.5 7.5v94.25c0 4.143 3.358 7.5 7.5 7.5h109.25v15h-124.25c-4.142 0-7.5 3.357-7.5 7.5v22.5h-109.25c-4.142 0-7.5 3.357-7.5 7.5v94.25c0 4.143 3.358 7.5 7.5 7.5h109.25v15h-109.25c-4.142 0-7.5 3.357-7.5 7.5v94.25c0 4.143 3.358 7.5 7.5 7.5h233.5c4.142 0 7.5-3.357 7.5-7.5v-94.25c0-4.143-3.358-7.5-7.5-7.5h-109.25v-15h109.25c4.142 0 7.5-3.357 7.5-7.5v-94.25c0-4.143-3.358-7.5-7.5-7.5h-109.25v-15h248.5v15h-109.25c-4.142 0-7.5 3.357-7.5 7.5v94.25c0 4.143 3.358 7.5 7.5 7.5h109.25v15h-109.25c-4.142 0-7.5 3.357-7.5 7.5v94.25c0 4.143 3.358 7.5 7.5 7.5h233.5c4.142 0 7.5-3.357 7.5-7.5v-94.25c0-4.143-3.358-7.5-7.5-7.5h-109.25v-15zm-357.75-372.75h218.5v79.25h-218.5zm86.75 482h-218.5v-79.25h218.5zm0-124.25h-218.5v-79.25h218.5zm263.5 124.25h-218.5v-79.25h218.5zm-218.5-203.5h218.5v79.25h-218.5z"/></g></svg>