<?xml version="1.0" encoding="UTF-8"?>
<svg width="64px" height="64px" viewBox="0 0 64 64" version="1.1" xmlns="http://www.w3.org/2000/svg" xmlns:xlink="http://www.w3.org/1999/xlink">
    <title>folder</title>
    <g id="folder" stroke="none" stroke-width="1" fill="none" fill-rule="evenodd">
        <path d="M57,10.8882256 L38.3334579,10.8882256 C37.8533742,10.8882256 37.4022958,11.1180218 37.1200555,11.5063783 L33.5128998,16.4697454 C33.0424993,17.1170062 32.290702,17.5 31.4905624,17.5 L7,17.5 C6.03350169,17.5 5.15850169,17.8917508 4.52512627,18.5251263 C3.89175084,19.1585017 3.5,20.0335017 3.5,21 L3.5,50 C3.5,50.9664983 3.89175084,51.8414983 4.52512627,52.4748737 C5.15850169,53.1082492 6.03350169,53.5 7,53.5 L57,53.5 C57.9664983,53.5 58.8414983,53.1082492 59.4748737,52.4748737 C60.1082492,51.8414983 60.5,50.9664983 60.5,50 L60.5,14.3882256 C60.5,13.4217272 60.1082492,12.5467272 59.4748737,11.9133518 C58.8414983,11.2799764 57.9664983,10.8882256 57,10.8882256 Z" id="Rectangle" stroke="#D2B964" stroke-width="3" fill="#F9DF87" transform="translate(32.000000, 32.194113) scale(-1, 1) translate(-32.000000, -32.194113) "></path>
    </g>
</svg>