<svg height="432pt" viewBox="0 -104 432 432" width="432pt" xmlns="http://www.w3.org/2000/svg"><path d="m8 192h383.695312c16.378907 0 31.105469-9.980469 37.164063-25.199219 6.0625-15.214843 2.234375-32.589843-9.660156-43.847656l-13.703125-12.96875c-52.789063-50.175781-122.867188-78.101563-195.695313-77.984375h-83.5625l-1.933593-7.761719c-3.546876-14.253906-16.355469-24.2578122-31.046876-24.238281h-42.515624c-14.691407-.0195312-27.5 9.984375-31.046876 24.238281l-1.933593 7.761719h-9.761719c-4.417969 0-8 3.582031-8 8v144c0 4.417969 3.582031 8 8 8zm8-64h11.566406l30.035156 48h-41.601562zm144 .128906c37.445312.605469 74.386719 8.769532 108.601562 24l53.695313 23.871094h-162.296875zm-16-16.128906h-32v-8c0-4.417969 3.582031-8 8-8h16c4.417969 0 8 3.582031 8 8zm0 16v48h-32v-48zm-48 48h-19.566406l-30.035156-48h49.601562zm254.785156-88h-47.648437c-39.128907-.066406-77.128907-13.101562-108.058594-37.070312l-3.765625-2.929688h18.488281c49.800781-.054688 98.628907 13.800781 140.984375 40zm-315.585937-59.878906c1.78125-7.132813 8.195312-12.132813 15.542969-12.121094h42.515624c7.347657-.011719 13.761719 4.988281 15.542969 12.121094l.960938 3.878906h-75.523438zm130.058593 19.878906 20 15.550781c33.734376 26.152344 75.191407 40.375 117.878907 40.449219h70.785156c7.144531 5.519531 14.015625 11.394531 20.574219 17.601562l13.703125 12.964844c7.140625 6.757813 9.4375 17.183594 5.800781 26.316406-3.636719 9.128907-12.476562 15.121094-22.304688 15.117188h-29.992187l-86.597656-38.496094c-36.265625-16.136718-75.417969-24.769531-115.105469-25.375v-8.128906c0-13.253906-10.746094-24-24-24h-16c-13.253906 0-24 10.746094-24 24v8h-80v-64zm0 0"/><path d="m32 64h16v16h-16zm0 0"/><path d="m64 64h16v16h-16zm0 0"/><path d="m0 208h432v16h-432zm0 0"/><path d="m368 136h16v16h-16zm0 0"/></svg>