<svg height="432pt" viewBox="0 -111 432 431" width="432pt" xmlns="http://www.w3.org/2000/svg"><path d="m0 192.5h432v16h-432zm0 0"/><path d="m76.433594 160.5h19.566406v-48h-49.566406zm0 0"/><path d="m16 112.5v48h41.558594l-30-48zm0 0"/><path d="m112 112.5h32v48h-32zm0 0"/><path d="m303.136719 72.5h47.503906c-36.589844-22.457031-77.996094-35.894531-120.800781-39.199219-.976563-.074219-1.945313-.152343-2.910156-.207031-5.699219-.378906-11.402344-.609375-17.105469-.609375h-18.511719l3.765625 2.925781c30.925781 23.976563 68.929687 37.019532 108.058594 37.089844zm0 0"/><path d="m108.800781 12.621094c-1.78125-7.132813-8.195312-12.132813-15.542969-12.121094h-42.515624c-7.347657-.011719-13.761719 4.988281-15.542969 12.121094l-.960938 3.878906h75.523438zm0 0"/><path d="m160 112.628906v47.871094h162.304688l-53.703126-23.863281c-34.214843-15.234375-71.15625-23.398438-108.601562-24.007813zm0 0"/><path d="m136 80.5h-16c-4.417969 0-8 3.582031-8 8v8h32v-8c0-4.417969-3.582031-8-8-8zm0 0"/><path d="m408.199219 119.066406-13.703125-12.964844c-6.558594-6.207031-13.429688-12.082031-20.574219-17.601562h-70.785156c-42.6875-.070312-84.148438-14.296875-117.890625-40.449219l-19.988282-15.550781h-149.257812v64h80v-8c0-13.253906 10.746094-24 24-24h16c13.253906 0 24 10.746094 24 24v8.128906c39.6875.605469 78.839844 9.238282 115.105469 25.375l86.597656 38.496094h29.992187c9.828126.003906 18.667969-5.988281 22.304688-15.117188 3.636719-9.132812 1.339844-19.558593-5.800781-26.316406zm-360.199219-54.566406h-16v-16h16zm32 0h-16v-16h16zm304 72h-16v-16h16zm0 0"/></svg>