<svg height="512pt" viewBox="0 -72 512 512" width="512pt" xmlns="http://www.w3.org/2000/svg"><path d="m428.640625 304c2.167969 4.878906 3.359375 10.320312 3.359375 16 0 22.078125-17.921875 40-40 40s-40-17.921875-40-40c0-5.679688 1.199219-11.039062 3.359375-16zm0 0" fill="#aab2bd"/><path d="m310 272c6.320312 9.128906 10 20.167969 10 32 0 30.960938-25.039062 56-56 56s-56-25.039062-56-56c0-11.832031 3.679688-22.960938 10.078125-32h21.921875c6.71875-5.039062 14.960938-8 24-8 8.960938 0 17.28125 2.960938 24 8zm0 0" fill="#ccd1d9"/><path d="m176 304c0 30.960938-25.039062 56-56 56-19.039062 0-35.832031-9.441406-45.921875-24-6.398437-9.039062-10.078125-20.078125-10.078125-32 0-11.832031 3.679688-22.871094 10.078125-32h91.84375c6.398437 9.039062 10.078125 20.078125 10.078125 32zm0 0" fill="#ccd1d9"/><path d="m64 304c0 11.921875 3.679688 22.960938 10.078125 32h-34.078125v-64h34.078125c-6.398437 9.128906-10.078125 20.167969-10.078125 32zm0 0" fill="#434a54"/><path d="m40 144h48v48h-48zm0 0" fill="#5d9cec"/><path d="m88 144h48v48h-48zm0 0" fill="#5d9cec"/><g fill="#656d78"><path d="m184 240v32h-48v-32zm0 0"/><path d="m136 240v32h-96v-80h96zm0 0"/><path d="m319.441406 272h-31.441406c-6.71875-5.039062-15.039062-8-24-8-9.039062 0-17.28125 2.960938-24 8h-31.441406c11.042968-19.121094 31.761718-32 55.441406-32s44.398438 12.878906 55.441406 32zm0 0"/></g><path d="m456 288v16h-136c0-11.832031-3.679688-22.871094-10-32h9.441406c-11.042968-19.121094-31.761718-32-55.441406-32s-44.398438 12.878906-55.441406 32h9.511718c-6.398437 9.039062-10.078124 20.167969-10.078124 32h-32c0-11.921875-3.679688-22.960938-10.082032-32h18.089844v-32h-48v-48h88v16h232zm0 0" fill="#434a54"/><path d="m296 152v56h-32v-56zm0 0" fill="#aab2bd"/><path d="m440 112-8 96h-32l-8-96zm0 0" fill="#353b44"/><path d="m480 40c8.808594 0 16 7.199219 16 16 0 8.878906-7.191406 16-16 16h-48c0 8.878906-7.191406 16-16 16-8.800781 0-16-7.121094-16-16h-128c-8.800781 0-16-7.121094-16-16 0-8.800781 7.199219-16 16-16h-208c-8.800781 0-16-7.121094-16-16 0-8.800781 7.199219-16 16-16h376c8.808594 0 16 7.199219 16 16 0 8.878906-7.191406 16-16 16zm0 0" fill="#ccd1d9"/><path d="m392.230469 328c-4.421875 0-8.039063-3.574219-8.039063-8s3.535156-8 7.953125-8h.085938c4.417969 0 8 3.574219 8 8s-3.582031 8-8 8zm0 0"/><path d="m504 368h-496c-4.425781 0-8-3.574219-8-8s3.574219-8 8-8h496c4.425781 0 8 3.574219 8 8s-3.574219 8-8 8zm0 0"/><path d="m40 344c-4.425781 0-8-3.574219-8-8v-192c0-4.425781 3.574219-8 8-8s8 3.574219 8 8v192c0 4.425781-3.574219 8-8 8zm0 0"/><path d="m136 280c-4.425781 0-8-3.574219-8-8v-128c0-4.425781 3.574219-8 8-8s8 3.574219 8 8v128c0 4.425781-3.574219 8-8 8zm0 0"/><path d="m136 152h-112.496094c-4.425781 0-8-3.574219-8-8s3.574219-8 8-8h112.496094c4.425781 0 8 3.574219 8 8s-3.574219 8-8 8zm0 0"/><path d="m224 200h-184c-4.425781 0-8-3.574219-8-8s3.574219-8 8-8h184c4.425781 0 8 3.574219 8 8s-3.574219 8-8 8zm0 0"/><path d="m88 200c-4.425781 0-8-3.574219-8-8v-48c0-4.425781 3.574219-8 8-8s8 3.574219 8 8v48c0 4.425781-3.574219 8-8 8zm0 0"/><path d="m224 232c-4.425781 0-8-3.574219-8-8v-32c0-4.425781 3.574219-8 8-8s8 3.574219 8 8v32c0 4.425781-3.574219 8-8 8zm0 0"/><path d="m456 216h-232c-4.425781 0-8-3.574219-8-8s3.574219-8 8-8h232c4.425781 0 8 3.574219 8 8s-3.574219 8-8 8zm0 0"/><path d="m456 312c-4.425781 0-8-3.574219-8-8v-96c0-4.425781 3.574219-8 8-8s8 3.574219 8 8v96c0 4.425781-3.574219 8-8 8zm0 0"/><path d="m456 312h-136c-4.425781 0-8-3.574219-8-8s3.574219-8 8-8h136c4.425781 0 8 3.574219 8 8s-3.574219 8-8 8zm0 0"/><path d="m120 368c-35.289062 0-64-28.710938-64-64 0-13.167969 3.96875-25.816406 11.488281-36.574219 2.519531-3.617187 7.511719-4.503906 11.144531-1.984375 3.625 2.527344 4.503907 7.511719 1.984376 11.144532-5.640626 8.0625-8.617188 17.542968-8.617188 27.414062 0 26.472656 21.527344 48 48 48s48-21.527344 48-48c0-9.871094-2.976562-19.359375-8.617188-27.441406-2.519531-3.621094-1.640624-8.605469 1.984376-11.144532 3.617187-2.511718 8.617187-1.628906 11.144531 1.984376 7.511719 10.777343 11.488281 23.433593 11.488281 36.601562 0 35.289062-28.710938 64-64 64zm0 0"/><path d="m264 368c-35.289062 0-64-28.710938-64-64 0-13.167969 3.96875-25.824219 11.488281-36.574219 2.535157-3.617187 7.519531-4.503906 11.144531-1.984375 3.625 2.527344 4.503907 7.519532 1.984376 11.144532-5.640626 8.054687-8.617188 17.542968-8.617188 27.414062 0 26.472656 21.527344 48 48 48s48-21.527344 48-48c0-9.863281-2.976562-19.351562-8.601562-27.425781-2.519532-3.621094-1.636719-8.613281 1.984374-11.140625 3.648438-2.523438 8.617188-1.632813 11.144532 1.980468 7.503906 10.777344 11.472656 23.425782 11.472656 36.585938 0 35.289062-28.710938 64-64 64zm0 0"/><path d="m319.457031 280.015625c-2.769531 0-5.449219-1.429687-6.929687-3.992187-10.015625-17.289063-28.605469-28.023438-48.527344-28.023438s-38.511719 10.734375-48.511719 28.007812c-2.214843 3.824219-7.097656 5.136719-10.929687 2.914063-3.824219-2.210937-5.132813-7.113281-2.910156-10.929687 12.847656-22.199219 36.734374-35.992188 62.351562-35.992188s49.511719 13.800781 62.367188 36.007812c2.21875 3.824219.90625 8.71875-2.910157 10.929688-1.273437.734375-2.640625 1.078125-4 1.078125zm0 0"/><path d="m264 312h-144c-4.425781 0-8-3.574219-8-8s3.574219-8 8-8h144c4.425781 0 8 3.574219 8 8s-3.574219 8-8 8zm0 0"/><path d="m184 280h-144c-4.425781 0-8-3.574219-8-8s3.574219-8 8-8h144c4.425781 0 8 3.574219 8 8s-3.574219 8-8 8zm0 0"/><path d="m264 216c-4.425781 0-8-3.574219-8-8v-56c0-4.425781 3.574219-8 8-8s8 3.574219 8 8v56c0 4.425781-3.574219 8-8 8zm0 0"/><path d="m296 160h-32c-4.425781 0-8-3.574219-8-8s3.574219-8 8-8h32c4.425781 0 8 3.574219 8 8s-3.574219 8-8 8zm0 0"/><path d="m296 216c-4.425781 0-8-3.574219-8-8v-56c0-4.425781 3.574219-8 8-8s8 3.574219 8 8v56c0 4.425781-3.574219 8-8 8zm0 0"/><path d="m176 200c-4.425781 0-8-3.574219-8-8v-24c0-4.425781 3.574219-8 8-8s8 3.574219 8 8v24c0 4.425781-3.574219 8-8 8zm0 0"/><path d="m432.007812 216c-.214843 0-.449218-.007812-.671874-.03125-4.40625-.367188-7.671876-4.226562-7.304688-8.632812l8-96c.367188-4.40625 4.152344-7.847657 8.632812-7.304688 4.40625.367188 7.671876 4.226562 7.304688 8.632812l-8 96c-.34375 4.175782-3.839844 7.335938-7.960938 7.335938zm0 0"/><path d="m496 296h-40c-4.425781 0-8-3.574219-8-8s3.574219-8 8-8h40c4.425781 0 8 3.574219 8 8s-3.574219 8-8 8zm0 0"/><path d="m496 312c-4.425781 0-8-3.574219-8-8v-32c0-4.425781 3.574219-8 8-8s8 3.574219 8 8v32c0 4.425781-3.574219 8-8 8zm0 0"/><path d="m74.046875 344h-34.046875c-4.425781 0-8-3.574219-8-8s3.574219-8 8-8h34.046875c4.425781 0 8 3.574219 8 8s-3.574219 8-8 8zm0 0"/><path d="m392 368c-26.472656 0-48-21.527344-48-48 0-6.664062 1.34375-13.128906 3.992188-19.191406 1.769531-4.054688 6.457031-5.90625 10.535156-4.144532 4.046875 1.777344 5.898437 6.488282 4.136718 10.535157-1.769531 4.039062-2.664062 8.351562-2.664062 12.800781 0 17.648438 14.351562 32 32 32s32-14.351562 32-32c0-4.464844-.894531-8.777344-2.664062-12.808594-1.777344-4.046875.070312-8.765625 4.121093-10.535156 4.070313-1.777344 8.773438.078125 10.535157 4.121094 2.65625 6.070312 4.007812 12.542968 4.007812 19.222656 0 26.472656-21.527344 48-48 48zm0 0"/><path d="m184 280c-4.425781 0-8-3.574219-8-8v-32c0-4.425781 3.574219-8 8-8s8 3.574219 8 8v32c0 4.425781-3.574219 8-8 8zm0 0"/><path d="m184 248h-48c-4.425781 0-8-3.574219-8-8s3.574219-8 8-8h48c4.425781 0 8 3.574219 8 8s-3.574219 8-8 8zm0 0"/><path d="m280 160c-4.425781 0-8-3.574219-8-8v-8c0-4.425781 3.574219-8 8-8s8 3.574219 8 8v8c0 4.425781-3.574219 8-8 8zm0 0"/><path d="m240 280h-31.441406c-4.421875 0-8-3.574219-8-8s3.578125-8 8-8h31.441406c4.425781 0 8 3.574219 8 8s-3.574219 8-8 8zm0 0"/><path d="m319.449219 280.015625h-31.449219c-4.425781 0-8-3.574219-8-8 0-4.421875 3.574219-8 8-8h31.449219c4.421875 0 8 3.578125 8 8 0 4.425781-3.585938 8-8 8zm0 0"/><path d="m240.007812 280c-2.441406 0-4.832031-1.105469-6.40625-3.199219-2.65625-3.527343-1.9375-8.542969 1.597657-11.191406 16.746093-12.570313 40.878906-12.554687 57.578125-.015625 3.527344 2.652344 4.238281 7.671875 1.589844 11.199219-2.648438 3.535156-7.671876 4.238281-11.199219 1.589843-11.121094-8.351562-27.191407-8.367187-38.375.015626-1.433594 1.082031-3.113281 1.601562-4.785157 1.601562zm0 0"/><path d="m399.992188 216c-4.121094 0-7.617188-3.160156-7.960938-7.335938l-8-96c-.367188-4.40625 2.898438-8.265624 7.304688-8.632812 4.503906-.550781 8.273437 2.898438 8.632812 7.304688l8 96c.367188 4.40625-2.898438 8.265624-7.304688 8.632812-.222656.023438-.457031.03125-.671874.03125zm0 0"/><path d="m440 120h-48c-4.425781 0-8-3.574219-8-8s3.574219-8 8-8h48c4.425781 0 8 3.574219 8 8s-3.574219 8-8 8zm0 0"/><path d="m360 248c-4.425781 0-8-3.574219-8-8v-32c0-4.425781 3.574219-8 8-8s8 3.574219 8 8v32c0 4.425781-3.574219 8-8 8zm0 0"/><path d="m416 96c-13.230469 0-24-10.769531-24-24 0-4.425781 3.574219-8 8-8s8 3.574219 8 8c0 4.414062 3.585938 8 8 8s8-3.585938 8-8c0-4.425781 3.574219-8 8-8s8 3.574219 8 8c0 13.230469-10.769531 24-24 24zm0 0"/><path d="m480 80c-4.425781 0-8-3.574219-8-8s3.574219-8 8-8c4.414062 0 8-3.585938 8-8s-3.585938-8-8-8c-4.425781 0-8-3.574219-8-8s3.574219-8 8-8c13.230469 0 24 10.769531 24 24s-10.769531 24-24 24zm0 0"/><path d="m272 79.984375c-13.230469 0-24-10.769531-24-24s10.769531-24 24-24c4.425781 0 8 3.574219 8 8 0 4.421875-3.574219 8-8 8-4.414062 0-8 3.582031-8 8 0 4.414063 3.585938 8 8 8 4.425781 0 8 3.574219 8 8 0 4.421875-3.574219 8-8 8zm0 0"/><path d="m64.007812 48c-13.230468 0-24-10.769531-24-24s10.769532-24 24-24c4.425782 0 8 3.574219 8 8s-3.574218 8-8 8c-4.414062 0-8 3.585938-8 8s3.585938 8 8 8c4.425782 0 8 3.574219 8 8s-3.574218 8-8 8zm0 0"/><path d="m439.984375 48c-4.425781 0-8-3.574219-8-8s3.574219-8 8-8c4.414063 0 8-3.585938 8-8s-3.585937-8-8-8c-4.425781 0-8-3.574219-8-8s3.574219-8 8-8c13.230469 0 24 10.769531 24 24s-10.769531 24-24 24zm0 0"/><path d="m480 48h-40.015625c-4.425781 0-8-3.574219-8-8s3.574219-8 8-8h40.015625c4.425781 0 8 3.574219 8 8s-3.574219 8-8 8zm0 0"/><path d="m480 80h-48c-4.425781 0-8-3.574219-8-8s3.574219-8 8-8h48c4.425781 0 8 3.574219 8 8s-3.574219 8-8 8zm0 0"/><path d="m439.984375 16h-375.976563c-4.421874 0-8-3.574219-8-8s3.578126-8 8-8h375.976563c4.421875 0 8 3.574219 8 8s-3.578125 8-8 8zm0 0"/><path d="m272 48h-207.992188c-4.421874 0-8-3.574219-8-8s3.578126-8 8-8h207.992188c4.425781 0 8 3.574219 8 8s-3.574219 8-8 8zm0 0"/><path d="m400 79.984375h-128c-4.425781 0-8-3.578125-8-8 0-4.425781 3.574219-8 8-8h128c4.425781 0 8 3.574219 8 8 0 4.421875-3.574219 8-8 8zm0 0"/></svg>